HIERARCHY
ROOT Hips
{
	OFFSET -0.179506 -22.333345 2.821913
	CHANNELS 6 Xposition Yposition Zposition Zrotation Yrotation Xrotation 
	JOINT LeftUpLeg
	{
		OFFSET 6.951974 -9.140623 -0.681533
		CHANNELS 3 Zrotation Yrotation Xrotation
		JOINT LeftLeg
		{
			OFFSET 3.427654 -37.519855 -0.449580
			CHANNELS 3 Zrotation Yrotation Xrotation
			JOINT LeftFoot
			{
				OFFSET -1.359570 -39.796059 -4.369333
				CHANNELS 3 Zrotation Yrotation Xrotation
				JOINT LeftToe
				{
					OFFSET 2.635814 -5.579078 11.928840
					CHANNELS 3 Zrotation Yrotation Xrotation
					End Site
					{
						OFFSET 0.000000 0.000000 0.000000
					}
				}
			}
		}
	}
	JOINT RightUpLeg
	{
		OFFSET -6.767048 -9.052170 -0.431982
		CHANNELS 3 Zrotation Yrotation Xrotation
		JOINT RightLeg
		{
			OFFSET -3.829005 -38.256897 -0.885003
			CHANNELS 3 Zrotation Yrotation Xrotation
			JOINT RightFoot
			{
				OFFSET 1.577377 -39.841461 -4.231180
				CHANNELS 3 Zrotation Yrotation Xrotation
				JOINT RightToe
				{
					OFFSET -2.537174 -4.814398 12.334795
					CHANNELS 3 Zrotation Yrotation Xrotation
					End Site
					{
						OFFSET 0.000000 0.000000 0.000000
					}
				}
			}
		}
	}
	JOINT Spine
	{
		OFFSET -0.253288 10.896323 -2.669631
		CHANNELS 3 Zrotation Yrotation Xrotation
		JOINT Spine1
		{
			OFFSET 0.548704 13.518043 0.109247
			CHANNELS 3 Zrotation Yrotation Xrotation
			JOINT Spine2
			{
				OFFSET 0.145701 5.292222 2.542457
				CHANNELS 3 Zrotation Yrotation Xrotation
				JOINT Neck
				{
					OFFSET -0.277840 21.387037 -4.285703
					CHANNELS 3 Zrotation Yrotation Xrotation
					JOINT Head
					{
						OFFSET 0.515184 6.496960 5.134897
						CHANNELS 3 Zrotation Yrotation Xrotation
						End Site
						{
							OFFSET 0.000000 0.000000 0.000000
						}
					}
				}
				JOINT LeftShoulder
				{
					OFFSET 7.884473 12.174932 -3.408961
					CHANNELS 3 Zrotation Yrotation Xrotation
					JOINT LeftArm
					{
						OFFSET 9.097692 3.046888 -0.886815
						CHANNELS 3 Zrotation Yrotation Xrotation
						JOINT LeftForeArm
						{
							OFFSET 25.961220 -1.277207 -2.745643
							CHANNELS 3 Zrotation Yrotation Xrotation
							JOINT LeftHand
							{
								OFFSET 24.923361 0.898606 -0.117091
								CHANNELS 3 Zrotation Yrotation Xrotation
								End Site
								{
									OFFSET 0.000000 0.000000 0.000000
								}
							}
						}
					}
				}
				JOINT RightShoulder
				{
					OFFSET -8.175920 11.883285 -3.861528
					CHANNELS 3 Zrotation Yrotation Xrotation
					JOINT RightArm
					{
						OFFSET -9.601238 3.255117 -0.914307
						CHANNELS 3 Zrotation Yrotation Xrotation
						JOINT RightForeArm
						{
							OFFSET -25.374195 -1.332924 -2.140099
							CHANNELS 3 Zrotation Yrotation Xrotation
							JOINT RightHand
							{
								OFFSET -25.529810 0.777228 -0.555919
								CHANNELS 3 Zrotation Yrotation Xrotation
								End Site
								{
									OFFSET 0.000000 0.000000 0.000000
								}
							}
						}
					}
				}
			}
		}
	}
}
MOTION
Frames: 18
Frame Time: 0.033333
-63.817757 -102.330032 91.441391 -44.205698 -2.584822 93.611161 2.800448 -13.596324 -40.349256 -5.605260 0.718854 24.520162 8.352946 5.592402 0.258262 nan nan nan 2.551485 -3.236661 25.301838 -0.196144 1.426822 30.116302 11.140661 -3.701843 3.900960 nan nan nan -6.774519 17.439579 2.046854 0.426780 1.337537 17.045843 -1.261373 5.004722 -6.853750 4.482011 -12.861689 -3.205146 9.808837 -12.063356 -14.647034 -18.012444 8.554029 7.202538 -42.428317 17.997670 14.026307 -161.401226 -72.270980 -165.088832 -0.312153 -21.569833 19.326945 21.575125 9.059957 6.146879 45.604038 17.068202 9.434808 176.683847 87.644249 -163.852822 8.806957 18.442120 -0.743071 
-65.378113 -104.078949 90.701584 -44.117439 -2.291638 92.861761 2.535825 -12.865470 -40.316236 -6.263999 1.300692 27.675573 9.288067 4.407210 3.009945 nan nan nan 2.908657 -3.284043 25.277383 -0.638210 0.833573 33.291233 10.484779 -3.694613 3.109891 nan nan nan -6.411517 16.642156 2.701286 0.497760 0.899416 17.192844 -1.420535 5.082334 -7.672574 4.731668 -11.965744 -3.003870 9.272493 -12.175289 -14.421324 -18.315429 8.765175 7.061406 -43.095728 17.853087 14.034096 -160.457980 -72.300914 -166.165660 -1.126671 -21.926812 22.099538 22.001753 8.792776 6.436099 47.134340 16.532481 10.653313 -172.684774 89.189742 -153.639033 7.832885 18.586885 0.062088 
-66.971138 -105.823578 89.945953 -43.920380 -1.860227 91.781845 2.424660 -12.038625 -40.164172 -8.237746 0.846515 32.429332 9.889955 5.372630 -0.605528 nan nan nan 3.338922 -3.478247 25.428095 -0.699180 0.688995 36.600138 9.805575 -4.279062 2.462453 nan nan nan -6.184267 16.309849 3.656921 0.980541 0.720419 15.621884 -0.885833 4.825386 -6.584428 4.265717 -12.084493 -1.970457 9.177600 -11.361224 -15.436757 -19.491627 7.801066 7.510541 -44.194455 17.501989 13.195986 -161.635461 -72.757297 -165.258994 1.081924 -22.119427 22.339614 22.230886 8.926463 5.955833 47.641438 14.950807 10.144259 67.957080 88.834106 86.975908 6.547514 18.450384 -0.319400 
-68.565002 -107.542236 89.200867 -43.699502 -1.627710 90.551966 2.255310 -11.500687 -39.970599 -10.296011 1.173534 37.572849 11.645353 6.708486 -4.433562 nan nan nan 3.414922 -3.540011 25.498748 -0.421774 0.454238 40.194588 8.829655 -4.876181 1.975443 nan nan nan -6.086556 15.863374 4.848986 1.367536 0.432048 14.625490 -0.541267 4.590006 -6.073860 4.084817 -12.218387 -1.281827 8.864888 -10.150634 -16.142613 -20.324183 7.139008 7.571119 -45.279164 16.810937 13.058734 -165.314537 -73.039140 -162.132550 4.322533 -20.878673 20.423636 22.472861 8.803275 5.252283 48.231706 13.453216 10.296600 45.294013 87.535148 64.749065 6.050903 17.556819 -1.681552 
-70.142662 -109.154541 88.509674 -43.431282 -1.713949 89.697492 2.406177 -11.260872 -40.131605 -11.526299 3.237008 42.138119 12.916931 6.984647 -7.622052 nan nan nan 3.281396 -3.360363 24.778989 -0.362922 -0.189539 44.179820 7.826344 -5.178012 1.562234 nan nan nan -6.495846 15.255586 5.620396 1.611750 0.169688 14.061233 -0.238335 4.263977 -5.830708 4.048925 -11.813015 -0.750865 8.750221 -9.327576 -16.899013 -20.877671 6.628485 7.147077 -46.142089 15.842977 13.575140 -169.089137 -73.447545 -158.606916 5.666450 -19.536366 19.795950 23.051229 8.582016 4.657292 49.003036 12.296473 11.019026 26.520741 86.270994 46.363637 6.290998 16.789093 -2.455174 
-71.527084 -110.773048 87.954018 -42.827653 -2.631922 88.796533 2.084302 -12.263568 -39.773913 -11.958206 5.981233 45.309704 13.307813 6.555757 -9.947906 nan nan nan 2.149921 -3.073437 23.824431 -0.356761 -1.161309 48.373732 7.000991 -5.277364 1.117031 nan nan nan -7.476832 14.924684 6.450393 1.602859 -0.370678 14.138207 0.131986 3.585602 -5.924640 3.959869 -11.474744 -0.473219 8.812987 -8.572018 -17.679285 -21.351268 5.910072 6.592218 -47.285005 14.620210 14.296478 -173.698539 -74.269691 -154.010345 4.678984 -18.846835 19.461570 24.012559 8.420655 3.979041 49.589291 11.111655 12.092340 7.627088 85.042890 28.139978 7.934659 16.035599 -1.651407 
-72.758324 -112.365288 87.469887 -41.951987 -3.845313 88.080271 1.530498 -14.102397 -39.146630 -12.648948 7.931595 47.190581 13.276169 6.446061 -11.615873 nan nan nan 0.724048 -2.675531 22.332438 -0.139596 -2.123290 52.762494 6.128672 -5.588731 0.790283 nan nan nan -8.585122 14.395065 7.233906 1.406019 -1.101061 13.987607 0.441239 2.908767 -5.722202 3.829980 -11.505072 -0.398750 9.151445 -7.488684 -18.240831 -22.312940 4.938759 6.082294 -47.989340 13.320575 14.883152 -179.217386 -74.878864 -148.761519 3.834005 -18.338215 19.089928 25.359039 8.314560 3.564667 49.608085 10.103740 12.745113 -3.544724 83.651891 18.137176 9.278244 14.998966 0.292741 
-74.026077 -113.829544 87.100121 -41.211294 -5.098193 87.458334 0.637920 -15.694951 -37.784726 -14.151595 8.509689 47.583875 13.675134 7.483302 -12.795433 nan nan nan -0.707976 -2.161360 20.422711 0.397719 -2.858636 57.155099 4.948748 -6.254603 0.566181 nan nan nan -9.864690 13.910917 8.101860 1.195887 -1.776123 13.825071 0.663097 2.221292 -5.643398 3.864023 -11.579390 -0.649024 9.512743 -6.393228 -18.344753 -23.650699 3.918229 5.715465 -47.626366 11.738607 15.260094 177.196224 -75.129808 -145.919455 3.673232 -17.388051 19.380130 27.049653 8.150946 3.296620 49.897736 9.353696 12.897185 -7.499824 82.356958 14.142046 8.869148 13.359631 2.644777 
-75.330139 -115.271049 86.820839 -40.803977 -6.203739 86.878272 -0.618103 -16.565468 -35.754767 -15.897692 8.219730 47.288658 14.390325 9.130831 -14.035162 nan nan nan -2.160548 -1.720274 18.301068 0.797283 -3.312066 61.426925 3.796524 -6.762178 0.308277 nan nan nan -11.034594 13.588177 8.878800 1.009596 -2.182548 13.822358 0.879380 1.555442 -5.841102 3.744287 -11.949718 -0.704779 9.876315 -5.321904 -18.373437 -25.008448 2.736976 5.506039 -46.966542 10.007768 15.621077 174.752210 -75.317684 -143.777665 3.190501 -17.125492 19.654347 28.533651 7.714612 3.060921 49.883108 8.174096 12.809700 -8.841326 81.617600 13.426077 9.484542 12.449500 4.469279 
-76.664444 -116.666618 86.574219 -41.124948 -7.296710 86.634424 -2.015036 -16.602141 -33.682527 -16.985940 8.094789 46.925676 15.099488 10.422804 -15.411492 nan nan nan -3.425369 -0.866942 15.508084 0.757451 -3.462527 65.918062 2.887764 -7.188448 -0.140336 nan nan nan -12.163949 13.197787 9.074492 0.621362 -2.186847 14.377199 0.821469 1.069529 -6.493281 3.980519 -11.850544 -1.330709 10.144101 -4.680363 -17.425808 -25.686692 1.804466 5.152965 -46.230951 8.157871 16.225694 173.573375 -74.863368 -142.538723 1.290189 -15.708109 21.492409 29.715912 7.027733 3.128045 50.344229 7.378835 12.914868 -11.163835 80.912213 11.163176 10.915783 11.525688 5.334794 
-78.067787 -117.790085 86.499237 -42.127744 -7.612824 85.915294 -2.893047 -14.958325 -30.895186 -17.609644 7.762360 46.955045 15.298139 10.861805 -17.115271 nan nan nan -2.743268 0.991299 12.915980 0.365737 -3.670602 70.280208 1.965087 -8.367904 -0.477775 nan nan nan -12.768955 12.519590 10.439132 0.442725 -1.464568 14.498273 0.826605 0.954709 -7.532247 4.455706 -11.033537 -1.868913 9.993091 -4.507635 -16.777412 -26.140534 0.421503 4.877108 -45.897012 6.227224 17.210836 169.351682 -74.534807 -137.839516 -1.045318 -14.851972 23.147260 30.095297 6.649812 2.988955 51.265048 6.160114 13.158770 -15.126302 80.336196 7.679300 12.262724 11.214392 4.267125 
-79.311981 -119.480598 86.478561 -40.837031 -7.779076 85.738107 -4.110624 -15.822793 -29.131725 -17.472526 7.491526 47.409855 15.540203 11.254467 -18.667973 nan nan nan -3.064884 1.321923 10.417950 0.541295 -4.802599 73.455768 1.059545 -8.649537 -0.908639 nan nan nan -12.573665 11.198835 9.429837 0.322979 -2.171415 16.140230 0.629378 0.466044 -8.220741 3.611220 -11.161266 -0.990821 10.676084 -3.597012 -16.909165 -26.536873 -1.229050 5.216593 -45.830211 3.931681 17.298567 165.650815 -74.118989 -134.398110 -6.558570 -12.493474 26.258982 29.705043 6.114747 2.936971 52.261351 4.205652 12.814684 -16.665264 80.288481 6.434676 19.011638 10.301012 4.774232 
-80.196785 -121.110634 86.449371 -39.865396 -7.896700 86.215977 -5.130381 -16.980898 -28.439202 -17.018550 7.555586 47.985888 15.664860 11.748768 -19.920584 nan nan nan -4.245875 1.456755 6.541264 0.710103 -5.583147 77.281883 0.644860 -8.008096 -1.643639 nan nan nan -11.450528 9.694243 8.493676 -0.134267 -2.796920 16.857587 -0.111771 -0.060752 -8.598171 2.624056 -11.024540 -0.335515 11.282353 -3.100602 -17.033322 -26.812504 -2.243912 5.007469 -45.141758 1.787717 17.432803 165.744241 -74.105784 -133.601533 -7.966777 -14.114295 26.332510 29.030722 5.143310 2.858074 53.851539 2.646437 12.258538 -21.398070 80.189862 2.225769 19.000760 11.393924 4.483028 
-81.098167 -122.642433 86.484352 -38.978853 -7.772343 86.650222 -5.887232 -17.875848 -27.667895 -16.977055 7.158119 48.483511 16.068629 12.664698 -21.063877 nan nan nan -4.961344 1.546018 2.639147 1.089782 -6.080240 80.691296 0.108653 -7.750257 -2.489208 nan nan nan -10.093848 7.927830 8.346098 -0.645365 -3.433592 15.625981 -0.825821 -0.375350 -7.964270 1.345727 -11.013829 0.551577 11.928010 -2.072804 -17.333422 -27.073616 -2.949638 4.306247 -44.558824 0.083747 17.579354 167.495124 -73.802386 -134.244530 -7.178479 -13.554218 25.755702 28.367717 4.083730 2.363087 54.817730 0.703061 11.611216 -18.541335 80.443410 5.026136 19.823586 10.915368 4.359944 
-82.083771 -124.102051 86.650017 -38.579090 -7.745819 86.806544 -6.773475 -18.174147 -26.202317 -16.992425 6.526000 48.551706 16.393198 13.369086 -22.299618 nan nan nan -5.566832 1.890552 -1.028671 1.457873 -6.355677 83.590454 -0.320536 -7.669145 -3.314633 nan nan nan -9.233790 6.342472 8.665488 -0.998078 -3.723345 13.751127 -1.215671 -0.513032 -7.051951 -0.141196 -10.864261 1.670793 12.650233 -1.137551 -17.739649 -27.144075 -3.495670 3.422650 -44.266517 -1.817981 17.816982 168.855773 -73.585124 -135.735285 -9.320607 -13.225978 23.986363 27.612338 3.110088 1.705931 55.280341 -1.356992 11.267360 -14.252207 81.089353 8.621720 21.465729 11.344786 2.023235 
-83.220871 -125.482239 86.887543 -38.513460 -7.748666 86.911801 -7.459663 -17.899388 -24.455293 -17.130907 5.809269 48.274479 16.385845 13.733547 -23.342039 nan nan nan -6.129798 2.312217 -4.603359 1.585803 -6.514131 85.944868 -0.487399 -7.515406 -3.955110 nan nan nan -8.994683 4.908288 8.662506 -1.091677 -3.723892 12.606969 -1.429316 -0.553321 -6.620955 -1.016901 -10.496817 2.637714 12.979897 -0.401160 -17.909875 -26.701063 -3.875553 2.794658 -44.121290 -3.553411 18.309628 170.209496 -73.072138 -137.437462 -8.933817 -13.292352 22.066172 26.690033 2.017732 1.093065 55.609832 -3.354957 11.525246 -7.666042 81.697207 13.842873 21.034698 12.778906 -3.233040 
-84.330070 -126.761810 87.117516 -38.099329 -7.335079 87.053702 -7.619343 -17.670900 -22.924321 -17.239927 4.931149 48.042470 16.222179 13.905009 -24.152589 nan nan nan -6.336097 2.430526 -8.180575 1.318275 -6.823070 87.741450 -0.669267 -7.144445 -4.512151 nan nan nan -8.269037 3.480410 8.991947 -1.051001 -4.049951 11.170746 -1.557377 -0.740037 -6.050436 -1.758528 -9.856281 2.945559 12.949519 0.232903 -17.915881 -26.390010 -4.088011 2.260696 -44.002376 -5.374715 18.274093 171.536405 -72.698096 -139.059101 -8.033378 -14.749305 21.276426 25.696579 0.973275 0.801879 55.663133 -4.766690 10.809098 2.112559 82.201781 23.661558 22.117744 13.365017 -3.429031 
-85.506386 -127.977074 87.398117 -37.929372 -6.841445 86.935428 -7.703744 -16.985770 -20.914914 -17.275124 3.872762 47.485594 16.074692 14.068176 -24.764094 nan nan nan -6.328520 2.662333 -11.425005 1.120071 -6.980273 88.964068 -0.680600 -6.911101 -4.956415 nan nan nan -7.703515 2.162260 9.644822 -0.899672 -4.203669 9.848036 -1.551826 -0.871095 -5.512417 -2.241280 -9.095533 2.843527 12.694791 0.813104 -17.814576 -25.820831 -4.428947 1.680639 -43.985423 -6.936074 18.737921 172.034443 -72.244184 -140.765855 -6.908716 -15.608399 19.537846 24.522587 0.243647 0.596048 55.611722 -6.018693 10.608151 11.653289 82.447117 32.206482 22.200051 14.013883 -4.960754 
